<svg xmlns="http://www.w3.org/2000/svg" viewBox="0 0 860 920" width="860" height="920" font-family="ui-monospace, SFMono-Regular, Menlo, Monaco, Consolas, monospace">
  <style>
    .bg { fill: #0d1117; }
    .panel { fill: #161b22; stroke: #30363d; stroke-width: 1; }
    .divider { stroke: #30363d; stroke-width: 1; }
    .h1 { fill: #e6edf3; font-family: -apple-system, BlinkMacSystemFont, "Segoe UI", Helvetica, Arial, sans-serif; font-size: 28px; font-weight: 500; }
    .arrow { fill: #58a6ff; font-family: -apple-system, BlinkMacSystemFont, "Segoe UI", Helvetica, Arial, sans-serif; font-size: 28px; font-weight: 500; }
    .body { fill: #9198a1; font-family: -apple-system, BlinkMacSystemFont, "Segoe UI", Helvetica, Arial, sans-serif; font-size: 15px; }
    .section-label { fill: #6e7681; font-size: 11px; letter-spacing: 0.5px; }
    .row-label { fill: #6e7681; font-size: 11px; }
    .edu-text { fill: #9198a1; font-family: -apple-system, BlinkMacSystemFont, "Segoe UI", Helvetica, Arial, sans-serif; font-size: 14px; }
    .edu-strong { fill: #e6edf3; font-family: -apple-system, BlinkMacSystemFont, "Segoe UI", Helvetica, Arial, sans-serif; font-size: 14px; }
    .edu-mono { fill: #6e7681; font-size: 12px; }
    .pill { fill: none; stroke: #30363d; stroke-width: 1; }
    .pill-text { fill: #9198a1; font-size: 12px; }
    .card { fill: #0d1117; stroke: #30363d; stroke-width: 1; }
    .card-title { fill: #e6edf3; font-family: -apple-system, BlinkMacSystemFont, "Segoe UI", Helvetica, Arial, sans-serif; font-size: 14px; font-weight: 500; }
    .card-desc { fill: #9198a1; font-family: -apple-system, BlinkMacSystemFont, "Segoe UI", Helvetica, Arial, sans-serif; font-size: 12px; }
    .elsewhere-label { fill: #6e7681; font-size: 12px; }
    .elsewhere-link { fill: #9198a1; font-family: -apple-system, BlinkMacSystemFont, "Segoe UI", Helvetica, Arial, sans-serif; font-size: 13px; }
  </style>

  <!-- main panel -->
  <rect x="0" y="0" width="860" height="920" rx="12" class="panel"/>

  <!-- HEADER -->
  <text x="32" y="58" class="h1">hey, i&apos;m kalyan</text>
  <text x="218" y="58" class="arrow">→</text>

  <!-- bio -->
  <text x="32" y="92" class="body">backend &amp; ml engineer driven by building projects and products that solve</text>
  <text x="32" y="116" class="body">real-world problems. whether it&apos;s architecting a distributed key-value store from</text>
  <text x="32" y="140" class="body">scratch or automating my entire macos workflow, i focus on building systems that</text>
  <text x="32" y="164" class="body">simplify complexity and actually help people work better.</text>

  <line x1="32" y1="196" x2="828" y2="196" class="divider"/>

  <!-- EDU section -->
  <text x="32" y="226" class="section-label">/ EDU</text>
  <text x="32" y="254" class="edu-text">b.tech computer science,</text>
  <text x="198" y="254" class="edu-strong">pes university</text>
  <text x="316" y="254" class="edu-mono">2023 — 2027</text>

  <line x1="32" y1="282" x2="828" y2="282" class="divider"/>

  <!-- STACK section -->
  <text x="32" y="312" class="section-label">/ STACK</text>

  <!-- languages -->
  <text x="32" y="346" class="row-label">languages</text>
  <g transform="translate(150,332)">
    <rect x="0" y="0" width="56" height="22" rx="6" class="pill"/><text x="28" y="15" text-anchor="middle" class="pill-text">python</text>
    <rect x="62" y="0" width="30" height="22" rx="6" class="pill"/><text x="77" y="15" text-anchor="middle" class="pill-text">go</text>
    <rect x="98" y="0" width="22" height="22" rx="6" class="pill"/><text x="109" y="15" text-anchor="middle" class="pill-text">c</text>
    <rect x="126" y="0" width="76" height="22" rx="6" class="pill"/><text x="164" y="15" text-anchor="middle" class="pill-text">typescript</text>
    <rect x="208" y="0" width="80" height="22" rx="6" class="pill"/><text x="248" y="15" text-anchor="middle" class="pill-text">javascript</text>
    <rect x="294" y="0" width="34" height="22" rx="6" class="pill"/><text x="311" y="15" text-anchor="middle" class="pill-text">sql</text>
    <rect x="334" y="0" width="42" height="22" rx="6" class="pill"/><text x="355" y="15" text-anchor="middle" class="pill-text">bash</text>
  </g>

  <!-- web -->
  <text x="32" y="386" class="row-label">web</text>
  <g transform="translate(150,372)">
    <rect x="0" y="0" width="46" height="22" rx="6" class="pill"/><text x="23" y="15" text-anchor="middle" class="pill-text">react</text>
    <rect x="52" y="0" width="44" height="22" rx="6" class="pill"/><text x="74" y="15" text-anchor="middle" class="pill-text">node</text>
    <rect x="102" y="0" width="62" height="22" rx="6" class="pill"/><text x="133" y="15" text-anchor="middle" class="pill-text">tailwind</text>
    <rect x="170" y="0" width="62" height="22" rx="6" class="pill"/><text x="201" y="15" text-anchor="middle" class="pill-text">three.js</text>
    <rect x="238" y="0" width="58" height="22" rx="6" class="pill"/><text x="267" y="15" text-anchor="middle" class="pill-text">fastapi</text>
  </g>

  <!-- data -->
  <text x="32" y="426" class="row-label">data</text>
  <g transform="translate(150,412)">
    <rect x="0" y="0" width="62" height="22" rx="6" class="pill"/><text x="31" y="15" text-anchor="middle" class="pill-text">postgres</text>
    <rect x="68" y="0" width="44" height="22" rx="6" class="pill"/><text x="90" y="15" text-anchor="middle" class="pill-text">redis</text>
    <rect x="118" y="0" width="68" height="22" rx="6" class="pill"/><text x="152" y="15" text-anchor="middle" class="pill-text">supabase</text>
    <rect x="192" y="0" width="42" height="22" rx="6" class="pill"/><text x="213" y="15" text-anchor="middle" class="pill-text">mqtt</text>
    <rect x="240" y="0" width="78" height="22" rx="6" class="pill"/><text x="279" y="15" text-anchor="middle" class="pill-text">websockets</text>
  </g>

  <!-- ml -->
  <text x="32" y="466" class="row-label">ml</text>
  <g transform="translate(150,452)">
    <rect x="0" y="0" width="44" height="22" rx="6" class="pill"/><text x="22" y="15" text-anchor="middle" class="pill-text">llms</text>
    <rect x="50" y="0" width="44" height="22" rx="6" class="pill"/><text x="72" y="15" text-anchor="middle" class="pill-text">gnns</text>
    <rect x="100" y="0" width="118" height="22" rx="6" class="pill"/><text x="159" y="15" text-anchor="middle" class="pill-text">knowledge graphs</text>
    <rect x="224" y="0" width="36" height="22" rx="6" class="pill"/><text x="242" y="15" text-anchor="middle" class="pill-text">nlp</text>
    <rect x="266" y="0" width="40" height="22" rx="6" class="pill"/><text x="286" y="15" text-anchor="middle" class="pill-text">bert</text>
  </g>

  <!-- infra -->
  <text x="32" y="506" class="row-label">infra</text>
  <g transform="translate(150,492)">
    <rect x="0" y="0" width="54" height="22" rx="6" class="pill"/><text x="27" y="15" text-anchor="middle" class="pill-text">docker</text>
    <rect x="60" y="0" width="76" height="22" rx="6" class="pill"/><text x="98" y="15" text-anchor="middle" class="pill-text">kubernetes</text>
    <rect x="142" y="0" width="42" height="22" rx="6" class="pill"/><text x="163" y="15" text-anchor="middle" class="pill-text">linux</text>
    <rect x="190" y="0" width="100" height="22" rx="6" class="pill"/><text x="240" y="15" text-anchor="middle" class="pill-text">macos launchd</text>
  </g>

  <!-- workflow -->
  <text x="32" y="546" class="row-label">workflow</text>
  <g transform="translate(150,532)">
    <rect x="0" y="0" width="54" height="22" rx="6" class="pill"/><text x="27" y="15" text-anchor="middle" class="pill-text">neovim</text>
    <rect x="60" y="0" width="54" height="22" rx="6" class="pill"/><text x="87" y="15" text-anchor="middle" class="pill-text">vscode</text>
    <rect x="120" y="0" width="46" height="22" rx="6" class="pill"/><text x="143" y="15" text-anchor="middle" class="pill-text">tmux</text>
    <rect x="172" y="0" width="34" height="22" rx="6" class="pill"/><text x="189" y="15" text-anchor="middle" class="pill-text">zsh</text>
    <rect x="212" y="0" width="28" height="22" rx="6" class="pill"/><text x="226" y="15" text-anchor="middle" class="pill-text">git</text>
  </g>

  <line x1="32" y1="580" x2="828" y2="580" class="divider"/>

  <!-- SELECTED WORK section -->
  <text x="32" y="610" class="section-label">/ SELECTED WORK</text>

  <!-- row 1 -->
  <g transform="translate(32,628)">
    <rect x="0" y="0" width="390" height="60" rx="6" class="card"/>
    <text x="16" y="24" class="card-title">gbh-suite</text>
    <text x="16" y="46" class="card-desc">modular automation suite for macOS dev environments</text>
  </g>
  <g transform="translate(438,628)">
    <rect x="0" y="0" width="390" height="60" rx="6" class="card"/>
    <text x="16" y="24" class="card-title">vector</text>
    <text x="16" y="46" class="card-desc">gamified life OS with protocols, goals, streaks</text>
  </g>

  <!-- row 2 -->
  <g transform="translate(32,698)">
    <rect x="0" y="0" width="390" height="60" rx="6" class="card"/>
    <text x="16" y="24" class="card-title">nexus</text>
    <text x="16" y="46" class="card-desc">self-healing kubernetes platform with gitops + chaos eng</text>
  </g>
  <g transform="translate(438,698)">
    <rect x="0" y="0" width="390" height="60" rx="6" class="card"/>
    <text x="16" y="24" class="card-title">flux</text>
    <text x="16" y="46" class="card-desc">cross-platform file conversion CLI in go</text>
  </g>

  <!-- row 3 -->
  <g transform="translate(32,768)">
    <rect x="0" y="0" width="390" height="60" rx="6" class="card"/>
    <text x="16" y="24" class="card-title">echo</text>
    <text x="16" y="46" class="card-desc">serverless real-time browser chat over MQTT</text>
  </g>
  <g transform="translate(438,768)">
    <rect x="0" y="0" width="390" height="60" rx="6" class="card"/>
    <text x="16" y="24" class="card-title">vertex</text>
    <text x="16" y="46" class="card-desc">gesture + voice controlled 3D hologram workbench</text>
  </g>

  <line x1="32" y1="860" x2="828" y2="860" class="divider"/>

  <!-- elsewhere -->
  <text x="32" y="892" class="elsewhere-label">elsewhere →</text>
  <text x="710" y="892" class="elsewhere-link">linkedin</text>
  <text x="788" y="892" class="elsewhere-link">instagram</text>
</svg>
